<svg height="300" width="300" xmlns="http://www.w3.org/2000/svg" viewBox="0 0 512 512" xml:space="preserve"><path d="M423.004 48.568c-20.969-10.156-42.5-15.203-63.533-15.203-38.391 0-75.078 16.797-103.469 49.985-28.391-33.172-65.079-49.985-103.47-49.985-21.032 0-42.563 5.047-63.532 15.203C13.608 89.443-22.298 182.664 14.655 280.305c46.813 129.721 216.628 190.424 241.347 198.33 24.719-7.906 194.534-68.609 241.346-198.33 36.955-97.641 1.047-190.862-74.344-231.737zm-93.424 193.83-.016-.016a10.627 10.627 0 0 0 4.406-10.485c-.984-5.797-6.469-9.719-12.281-8.75a10.84 10.84 0 0 0-4.344 1.781c-1.297.906-32.031 22.657-56.656 63.579a232.07 232.07 0 0 0-7.641 13.844c-6.5-8.656-10.703-18.891-12.125-29.906-2.188-16.859 2.313-33.563 12.672-47.032 20.407-26.547 58.016-41.734 85.969-49.813 14.891-4.297 28.736-7.079 39.299-8.829 1 10.438 1.844 24.204 1.563 39.454-.547 29.344-5.516 69.954-26.08 96.672-12.141 15.813-30.563 24.876-50.547 24.876-12.359 0-24.188-3.516-34.484-10.188a199.66 199.66 0 0 1 9.234-17.36c22.234-37.295 50.75-57.623 51.031-57.827zm-110.517 20.516c-4.125-4.766-6.891-7.875-7.156-8.156a10.588 10.588 0 0 0-7.359-3.547c-5.891-.344-10.922 4.156-11.25 10.047a10.624 10.624 0 0 0 2.703 7.719c.219.234 11.204 12.547 22.547 26.344 6.579 7.984 11.36 14.125 14.829 18.828a44.732 44.732 0 0 1-16.157 3.016c-12.156 0-23.532-4.781-32.032-13.484-13.656-13.984-23.203-37.781-27.578-68.813-1.328-9.469-2-18.328-2.297-25.703 9.906.641 22.609 2.016 35.875 4.828 14.11 3.016 26.485 7.188 36.767 12.359a84.64 84.64 0 0 0-8.892 36.562zm271.535-54.86c-.594 21.375-5.047 43.141-13.203 64.704l-.047.156-.063.141c-9.75 27-26.359 52.954-49.375 77.158-19.281 20.266-43.141 39.406-70.893 56.891-39.891 25.141-77.859 40.563-96.328 47.328-12.047-40.969-11.86-80.078.531-116.798a84.628 84.628 0 0 0 42.578 11.47c25.5 0 50.719-11.423 67.471-33.205 46.641-60.656 25.984-173.064 25.984-173.064s-108.955 8.531-157.393 65.642c-36.891-19.516-85.22-21.203-100.798-21.203-3.25 0-5.063.078-5.063.078s-5.641 88.672 35.922 131.236c12.953 13.266 30.125 19.923 47.297 19.923a65.794 65.794 0 0 0 22.688-4.032c-3.172 10.079-5.578 20.345-7.141 30.767-4.047 27.078-2.578 55.172 4.359 83.719-20.454-8.266-50.704-22.047-82.142-41.859-27.75-17.484-51.61-36.625-70.892-56.891-23.016-24.204-39.641-50.158-49.376-77.158l-.063-.141-.047-.156c-8.156-21.563-12.609-43.329-13.203-64.704-.578-20.219 2.281-39.75 8.5-58.048 6.031-17.781 15.063-33.938 26.844-48.031 11.719-14.016 25.844-25.61 41.985-34.423 17.766-8.531 35.86-12.859 53.798-12.859 16.141 0 31.719 3.531 46.313 10.484 15.157 7.219 28.938 18 40.938 32.048l16.219 18.953 16.204-18.953c12.016-14.047 25.797-24.829 40.953-32.048 14.594-6.953 30.172-10.484 46.313-10.484 17.939 0 36.033 4.328 53.799 12.859 16.141 8.813 30.266 20.407 41.984 34.423 11.781 14.094 20.813 30.25 26.844 48.031 6.221 18.296 9.081 37.827 8.503 58.046z"/></svg>