<svg height="300" width="300" xmlns="http://www.w3.org/2000/svg" viewBox="0 0 100 100" style="enable-background:new 0 0 100 100" xml:space="preserve"><path d="M38.163 58.594c-5.174 0-9.381 3.396-9.381 7.572 0 4.175 4.207 7.572 9.381 7.572 5.172 0 9.379-3.396 9.379-7.572s-4.207-7.572-9.379-7.572zm0 13.107c-4.05 0-7.345-2.481-7.345-5.535 0-3.054 3.295-5.535 7.345-5.535 4.048 0 7.343 2.481 7.343 5.535 0 3.053-3.295 5.535-7.343 5.535zm-7.297-22.263c0-4.175-4.207-7.572-9.381-7.572s-9.381 3.396-9.381 7.572 4.207 7.574 9.381 7.574 9.381-3.399 9.381-7.574zm-9.381 5.537c-4.05 0-7.345-2.483-7.345-5.537 0-3.052 3.295-5.535 7.345-5.535s7.345 2.483 7.345 5.535c0 3.054-3.295 5.537-7.345 5.537zm13.95-16.767c5.174 0 9.381-3.398 9.381-7.574s-4.207-7.572-9.381-7.572-9.381 3.396-9.381 7.572 4.208 7.574 9.381 7.574zm0-13.109c4.05 0 7.345 2.483 7.345 5.535 0 3.054-3.295 5.537-7.345 5.537s-7.345-2.483-7.345-5.537c0-3.052 3.295-5.535 7.345-5.535zm35.935 6.678c0-4.175-4.207-7.574-9.381-7.574-5.172 0-9.379 3.398-9.379 7.574s4.207 7.572 9.379 7.572c5.174 0 9.381-3.396 9.381-7.572zm-16.724 0c0-3.054 3.295-5.537 7.343-5.537s7.345 2.483 7.345 5.537c0 3.052-3.297 5.535-7.345 5.535s-7.343-2.483-7.343-5.535zm39.323-18.771a43.89 43.89 0 0 1-.243-1.074 1.017 1.017 0 0 0-1.933-.203c-.744 1.728-2.573 2.8-4.513 3.937-3.162 1.854-6.98 4.183-5.164 10.106-.001.002-.005.002-.006.004l-.802 1.39C73.244 19.05 60.81 14.203 47.713 14.203 24.161 14.203 5 29.32 5 47.901c0 18.572 19.139 33.678 42.671 33.696l.004.002.022-.001.016.001.003-.001a36.885 36.885 0 0 0 1.661-.05l-1.173 2.409a3.445 3.445 0 0 0 1.37 4.474c.539.31 1.131.457 1.718.457a3.468 3.468 0 0 0 2.883-1.523l5.179-7.668c7.141-2.436 12.585-7.121 12.585-13.531 0-1.298-.476-2.499-1.262-3.529l3.933-5.713a8.619 8.619 0 0 0 4.197 1.093c2.489 0 4.841-1.031 6.271-2.546.002-.002.006-.001.008-.003l.01-.012.013-.011c.002-.002.001-.006.003-.008 4.318-4.346 5.451-11.709 2.876-18.775-.005-.013-.021-.016-.027-.029-.005-.013.005-.027-.001-.04a29.52 29.52 0 0 0-2.123-3.861l.588-1.779 1.02-1.767c2.565-.302 4.545-1.265 5.816-2.95 2.896-3.837 1.472-9.948.708-13.23zM69.196 61.197c-1.22-.899-2.762-1.496-4.474-1.682-.042-.005-.067-.001-.11-.001-.73 0-1.421-.157-2.074-.329l7.83-16.071 8.079 4.644-9.251 13.439zm-10.869-6.433c0-2.593 2.819-4.702 6.283-4.702.037 0 .066.009.103.009l-4.053 8.321c-1.412-.863-2.333-2.16-2.333-3.628zm21.01-8.846-7.817-4.493 10.436-11.684 2.291 1.32-4.91 14.857zm5.975-17.117-.227.396-1.945-1.125.227-.394 1.945 1.123zM52.489 86.228a1.428 1.428 0 0 1-1.899.433 1.394 1.394 0 0 1-.557-1.813l1.694-3.479a36.96 36.96 0 0 0 4.571-.781l-3.809 5.64zm-4.792-6.666C25.274 79.555 7.036 65.354 7.036 47.901c0-17.459 18.247-31.662 40.677-31.662 12.674 0 24.675 4.695 32.36 12.555L69.179 40.987a.91.91 0 0 0-.155.233l-3.362 6.902c-.342-.036-.671-.096-1.052-.096-4.585 0-8.317 3.022-8.317 6.738 0 3.413 3.156 6.21 7.22 6.65.042.005.075.002.118.002 3.464 0 6.272 2.156 6.272 4.748 0 8.382-11.287 13.392-22.206 13.398zm38.385-42.171c2.262 6.235 1.287 12.918-2.436 16.638-.004.004-.002.012-.007.016-.005.005-.012.003-.017.008-1.365 1.465-4.751 2.779-7.847 1.177l4.976-7.228c.056-.08.095-.165.127-.256l4.123-12.483c.395.7.757 1.406 1.081 2.128zm5.553-12.386c-1.018 1.35-2.633 2.088-4.927 2.249l-2.481-1.432c-1.845-4.925.779-6.464 4.084-8.401 1.4-.821 2.831-1.66 3.937-2.802.652 2.978 1.423 7.696-.613 10.386z"/></svg>