<svg xmlns="http://www.w3.org/2000/svg" width="256" height="256" xml:space="preserve"><g><g style="stroke:none;stroke-width:0;stroke-dasharray:none;stroke-linecap:butt;stroke-linejoin:miter;stroke-miterlimit:10;fill:none;fill-rule:nonzero;opacity:1"><path d="M89.334 47.69 79.145 36.229a2.636 2.636 0 0 0-1.97-.885h-9.356v-6.467c0-3.053-2.1-5.537-4.681-5.537H31.866c-2.581 0-4.681 2.484-4.681 5.537v30.23c0 1.758 1.245 3.188 2.774 3.188h7.277c.563 2.495 2.794 4.365 5.457 4.365s4.893-1.87 5.457-4.365h27.211c.563 2.495 2.794 4.365 5.457 4.365s4.894-1.87 5.457-4.365h1.089A2.64 2.64 0 0 0 90 59.659V49.441c0-.644-.236-1.266-.666-1.751zm-2.561.129H74.619a.463.463 0 0 1-.463-.462v-5.44c0-.255.208-.463.463-.463h6.495l5.659 6.365zM42.693 64.66a3.602 3.602 0 0 1-3.598-3.598c0-1.984 1.614-3.599 3.598-3.599s3.598 1.614 3.598 3.599a3.602 3.602 0 0 1-3.598 3.598zm23.125-4.365H48.232c-.376-2.724-2.713-4.831-5.539-4.831s-5.163 2.107-5.539 4.831h-7.195c-.366 0-.774-.487-.774-1.188v-30.23c0-1.95 1.203-3.537 2.681-3.537h31.272c1.479 0 2.681 1.587 2.681 3.537v31.418zm14.999 4.365a3.603 3.603 0 0 1-3.598-3.598 3.603 3.603 0 0 1 3.598-3.599 3.603 3.603 0 0 1 3.599 3.599 3.602 3.602 0 0 1-3.599 3.598zm6.547-4.365h-1.007c-.376-2.724-2.714-4.831-5.54-4.831s-5.163 2.107-5.539 4.831h-7.46V37.344h9.356c.182 0 .354.078.476.214l1.686 1.896h-4.717a2.466 2.466 0 0 0-2.463 2.463v5.44a2.465 2.465 0 0 0 2.463 2.462H88v9.84a.636.636 0 0 1-.636.636zM21.207 52.942H8.615a1 1 0 1 1 0-2h12.592a1 1 0 1 1 0 2zM21.207 46.031H4.617a1 1 0 0 1 0-2h16.59a1 1 0 0 1 0 2zM21.207 39.121H1a1 1 0 0 1 0-2h20.207a1 1 0 0 1 0 2z" style="stroke:none;stroke-width:1;stroke-dasharray:none;stroke-linecap:butt;stroke-linejoin:miter;stroke-miterlimit:10;fill:#000;fill-rule:nonzero;opacity:1" transform="translate(1.964 1.964) scale(2.8008)"/><path d="m47.407 51.363-.487-.271c-2.198-1.226-5.625-4.11-7.051-5.936-3.075-3.936-3.68-8.629-1.439-11.161 1.085-1.226 2.606-1.933 4.285-1.991 1.646-.06 3.283.522 4.693 1.645 1.41-1.123 3.042-1.717 4.691-1.645 1.679.058 3.2.765 4.286 1.99 2.24 2.532 1.635 7.226-1.439 11.161-1.427 1.826-4.854 4.71-7.051 5.936l-.488.272zM42.935 34l-.151.002c-1.125.039-2.139.507-2.856 1.317-1.576 1.781-.924 5.48 1.518 8.604 1.174 1.504 3.979 3.902 5.962 5.133 1.982-1.231 4.787-3.629 5.962-5.133 2.44-3.125 3.094-6.824 1.518-8.604-.718-.811-1.732-1.278-2.857-1.317-1.348-.036-2.762.554-3.921 1.693l-.701.689-.701-.689C45.59 34.598 44.256 34 42.935 34z" style="stroke:none;stroke-width:1;stroke-dasharray:none;stroke-linecap:butt;stroke-linejoin:miter;stroke-miterlimit:10;fill:#000;fill-rule:nonzero;opacity:1" transform="translate(1.964 1.964) scale(2.8008)"/></g></g></svg>